<svg xmlns="http://www.w3.org/2000/svg" viewBox="4 12 66.85 41.41" width="267" height="166">
  <title>Prepweek</title>
  <path d="M10.48 14H53.52C55.99 14 58 16.01 58 18.48V21.71Q55.94 20.24 53.44 20.63L43.52 22.2Q41 22.61 39.49 24.68Q37.99 26.75 38.39 29.28L38.5 30H10.48C8.01 30 6 27.99 6 25.52V18.48C6 16.01 8.01 14 10.48 14Z" fill="#000000"/>
  <path d="M10.48 34H30.52C32.99 34 35 36.01 35 38.48V45.52C35 47.99 32.99 50 30.52 50H10.48C8.01 50 6 47.99 6 45.52V38.48C6 36.01 8.01 34 10.48 34Z" fill="#000000"/>
  <path d="M43.79 23.88 53.71 22.31C56.15 21.93 58.45 23.59 58.83 26.04L59.93 32.99C60.06 33.82 59.96 34.63 59.67 35.36L55.1 32.65Q54.29 32.17 53.39 32.44Q52.36 32.74 52 33.41Q51.63 34.07 51.94 35.11L52.97 38.63L46.29 39.69C43.85 40.07 41.55 38.41 41.17 35.96L40.07 29.01C39.68 26.57 41.35 24.27 43.79 23.88Z" fill="#000000"/>
  <path d="M54.23 34.11 68.6 42.62Q68.99 42.85 68.76 43.24Q68.66 43.4 68.48 43.45L62.25 44.89L59.24 51.14Q59.04 51.55 58.63 51.35Q58.45 51.26 58.4 51.07L53.57 34.63Q53.44 34.2 53.87 34.07Q54.06 34.01 54.23 34.11Z" fill="#000000"/>
</svg>
