<svg xmlns="http://www.w3.org/2000/svg" viewBox="0 0 64 64" width="256" height="256">
  <title>PrepWeek</title>
  <defs><clipPath id="pw-zi0"><rect x="-7.45" y="26.75" width="46.39" height="10.5" rx="5.25" transform="rotate(71.31 15.75 32)"/></clipPath><clipPath id="pw-zi1"><rect x="7.94" y="31.25" width="37.62" height="10.5" rx="5.25" transform="rotate(-67.22 26.75 36.5)"/></clipPath><clipPath id="pw-zi2"><rect x="18.44" y="31.25" width="37.62" height="10.5" rx="5.25" transform="rotate(67.22 37.25 36.5)"/></clipPath></defs>
  <rect x="0" y="0" width="64" height="64" rx="15" fill="#171a23"/>
  <g transform="matrix(0.81 0 0 0.81 6.17 6.17)"><rect x="-7.45" y="26.75" width="46.39" height="10.5" rx="5.25" transform="rotate(71.31 15.75 32)" fill="#4f7cff"/><rect x="7.94" y="31.25" width="37.62" height="10.5" rx="5.25" transform="rotate(-67.22 26.75 36.5)" fill="#8b5cf6"/><rect x="18.44" y="31.25" width="37.62" height="10.5" rx="5.25" transform="rotate(67.22 37.25 36.5)" fill="#ec4899"/><rect x="25.05" y="26.75" width="46.39" height="10.5" rx="5.25" transform="rotate(-71.31 48.25 32)" fill="#f97316"/><g clip-path="url(#pw-zi0)"><rect x="7.94" y="31.25" width="37.62" height="10.5" rx="5.25" transform="rotate(-67.22 26.75 36.5)" fill="#2b2df6"/></g><g clip-path="url(#pw-zi1)"><rect x="18.44" y="31.25" width="37.62" height="10.5" rx="5.25" transform="rotate(67.22 37.25 36.5)" fill="#811a94"/></g><g clip-path="url(#pw-zi2)"><rect x="25.05" y="26.75" width="46.39" height="10.5" rx="5.25" transform="rotate(-71.31 48.25 32)" fill="#e6200d"/></g></g>
</svg>
