<svg xmlns="http://www.w3.org/2000/svg" viewBox="4.75 9.75 252.39 44.53" width="505" height="89">
  <title>Prepweek</title>
  <defs><clipPath id="pw-zm0"><rect x="-7.45" y="26.75" width="46.39" height="10.5" rx="5.25" transform="rotate(71.31 15.75 32)"/></clipPath><clipPath id="pw-zm1"><rect x="7.94" y="31.25" width="37.62" height="10.5" rx="5.25" transform="rotate(-67.22 26.75 36.5)"/></clipPath><clipPath id="pw-zm2"><rect x="18.44" y="31.25" width="37.62" height="10.5" rx="5.25" transform="rotate(67.22 37.25 36.5)"/></clipPath></defs>
  <rect x="-7.45" y="26.75" width="46.39" height="10.5" rx="5.25" transform="rotate(71.31 15.75 32)" fill="#4f7cff"/>
  <rect x="7.94" y="31.25" width="37.62" height="10.5" rx="5.25" transform="rotate(-67.22 26.75 36.5)" fill="#8b5cf6"/>
  <rect x="18.44" y="31.25" width="37.62" height="10.5" rx="5.25" transform="rotate(67.22 37.25 36.5)" fill="#ec4899"/>
  <rect x="25.05" y="26.75" width="46.39" height="10.5" rx="5.25" transform="rotate(-71.31 48.25 32)" fill="#f97316"/>
  <g clip-path="url(#pw-zm0)"><rect x="7.94" y="31.25" width="37.62" height="10.5" rx="5.25" transform="rotate(-67.22 26.75 36.5)" fill="#2b2df6"/></g>
  <g clip-path="url(#pw-zm1)"><rect x="18.44" y="31.25" width="37.62" height="10.5" rx="5.25" transform="rotate(67.22 37.25 36.5)" fill="#811a94"/></g>
  <g clip-path="url(#pw-zm2)"><rect x="25.05" y="26.75" width="46.39" height="10.5" rx="5.25" transform="rotate(-71.31 48.25 32)" fill="#e6200d"/></g>
  <path d="M78.49 32.28H83.36Q85.48 32.28 86.63 31.25Q87.78 30.22 87.78 28.3Q87.78 26.31 86.64 25.3Q85.49 24.28 83.37 24.28H78.46L80.05 22.8V46.3H73.25V17.7H83.73Q87.02 17.7 89.49 18.95Q91.97 20.21 93.34 22.57Q94.72 24.93 94.72 28.3Q94.72 31.66 93.34 34.03Q91.97 36.4 89.49 37.64Q87.01 38.89 83.72 38.89H78.49V32.28ZM101.44 25.74 103.22 31.48V46.3H96.42V25.74H101.44ZM101.63 35.45 100.55 34.99V29.64L100.96 29.15Q101.48 28.42 102.45 27.5Q103.42 26.57 104.7 25.88Q105.98 25.19 107.37 25.19Q108.06 25.19 108.6 25.29Q109.13 25.39 109.46 25.6V31.79H108.06Q105.43 31.79 103.82 32.67Q102.21 33.55 101.63 35.45ZM119.82 46.69Q116.71 46.69 114.38 45.38Q112.04 44.08 110.75 41.68Q109.46 39.29 109.46 36.03Q109.46 32.86 110.75 30.42Q112.04 27.98 114.38 26.58Q116.71 25.19 119.82 25.19Q123.04 25.19 125.35 26.65Q127.67 28.11 128.93 30.53Q130.19 32.96 130.19 35.93Q130.19 36.58 130.15 37.14Q130.11 37.69 130.04 38.01H114.51V33.4H124.77L124.2 34.94Q124.2 32.94 123.14 31.68Q122.08 30.43 119.88 30.43Q117.89 30.43 116.71 31.6Q115.52 32.78 115.52 34.76V37.07Q115.52 39.21 116.79 40.37Q118.06 41.53 120.3 41.53Q122.1 41.53 123.18 40.82Q124.25 40.11 125 39.04L129.5 41.46Q128.2 43.88 125.69 45.29Q123.19 46.69 119.82 46.69ZM143.82 46.85Q141.14 46.85 139.17 45.64Q137.19 44.43 136.1 42.02Q135.01 39.61 135.01 36.03Q135.01 32.64 136.13 30.23Q137.25 27.82 139.25 26.5Q141.24 25.19 143.88 25.19Q146.68 25.19 148.8 26.58Q150.92 27.98 152.13 30.42Q153.33 32.86 153.33 36.03Q153.33 39.16 152.11 41.62Q150.89 44.08 148.73 45.46Q146.58 46.85 143.82 46.85ZM132.16 54.28V25.74H137.22L138.96 31.37H138.58V40.25H138.96V54.28H132.16ZM142.55 40.31Q144.19 40.31 145.3 39.1Q146.41 37.89 146.41 36.03Q146.41 34.16 145.3 32.93Q144.19 31.7 142.55 31.7Q140.92 31.7 139.77 32.92Q138.62 34.15 138.62 36.02Q138.62 37.89 139.77 39.1Q140.92 40.31 142.55 40.31ZM178.52 46.3 171.22 21.9 169.96 17.7H176.46L183.93 42.46L180.57 42.37L186.93 17.7H193.81L185.91 46.3H178.52ZM160.5 46.3 152.61 17.7H159.48L165.85 42.37L162.49 42.46L169.96 17.7H176.46L175.23 21.9L167.89 46.3H160.5ZM202.64 46.69Q199.53 46.69 197.2 45.38Q194.87 44.08 193.58 41.68Q192.28 39.29 192.28 36.03Q192.28 32.86 193.58 30.42Q194.87 27.98 197.2 26.58Q199.53 25.19 202.64 25.19Q205.86 25.19 208.18 26.65Q210.49 28.11 211.75 30.53Q213.01 32.96 213.01 35.93Q213.01 36.58 212.98 37.14Q212.94 37.69 212.86 38.01H197.33V33.4H207.59L207.02 34.94Q207.02 32.94 205.97 31.68Q204.91 30.43 202.71 30.43Q200.71 30.43 199.53 31.6Q198.35 32.78 198.35 34.76V37.07Q198.35 39.21 199.62 40.37Q200.89 41.53 203.13 41.53Q204.93 41.53 206 40.82Q207.07 40.11 207.82 39.04L212.32 41.46Q211.02 43.88 208.52 45.29Q206.01 46.69 202.64 46.69ZM224.15 46.69Q221.04 46.69 218.7 45.38Q216.37 44.08 215.08 41.68Q213.79 39.29 213.79 36.03Q213.79 32.86 215.08 30.42Q216.37 27.98 218.7 26.58Q221.04 25.19 224.15 25.19Q227.36 25.19 229.68 26.65Q232 28.11 233.26 30.53Q234.52 32.96 234.52 35.93Q234.52 36.58 234.48 37.14Q234.44 37.69 234.37 38.01H218.84V33.4H229.09L228.53 34.94Q228.53 32.94 227.47 31.68Q226.41 30.43 224.21 30.43Q222.22 30.43 221.03 31.6Q219.85 32.78 219.85 34.76V37.07Q219.85 39.21 221.12 40.37Q222.39 41.53 224.63 41.53Q226.43 41.53 227.5 40.82Q228.57 40.11 229.32 39.04L233.82 41.46Q232.53 43.88 230.02 45.29Q227.52 46.69 224.15 46.69ZM241.11 35.97V35.12L249.37 25.74H256.9L247.83 36.12L247.74 34.41L257.14 46.3H249.27L241.11 35.97ZM236.49 17.7H243.27V46.3H236.49V17.7Z" fill="#151821"/>
</svg>
